<svg xmlns="http://www.w3.org/2000/svg" viewBox="0 0 512 512" role="img" aria-label="DeliEasy NEO app icon">
  <defs>
    <linearGradient id="bg" x1="0" y1="0" x2="1" y2="1">
      <stop offset="0%" stop-color="#ff9a28"/>
      <stop offset="52%" stop-color="#ff6f00"/>
      <stop offset="100%" stop-color="#e75500"/>
    </linearGradient>
    <linearGradient id="badge" x1="0" y1="0" x2="1" y2="1">
      <stop offset="0%" stop-color="#2b2f36"/>
      <stop offset="100%" stop-color="#121418"/>
    </linearGradient>
  </defs>

  <rect x="24" y="24" width="464" height="464" rx="106" fill="url(#bg)"/>

  <path d="M168 130h118c67 0 114 49 114 114s-47 114-114 114H168z" fill="#fff" opacity=".18"/>
  <path d="M180 160h96c54 0 92 37 92 84s-38 84-92 84h-96z" fill="#fff"/>

  <g fill="none" stroke="#fff" stroke-width="20" stroke-linecap="round" stroke-linejoin="round" opacity=".85">
    <path d="M132 356h248"/>
    <path d="M188 328l-56 28 56 28"/>
    <path d="M324 328l56 28-56 28"/>
  </g>

  <rect x="246" y="320" width="204" height="98" rx="30" fill="url(#badge)"/>
  <text x="348" y="383" text-anchor="middle" font-family="Segoe UI,Helvetica,Arial,sans-serif" font-size="52" font-weight="700" fill="#fff" letter-spacing="1.5">NEO</text>
</svg>
